<?xml version="1.0" standalone="no"?>
<!DOCTYPE svg PUBLIC "-//W3C//DTD SVG 1.1//EN" "http://www.w3.org/Graphics/SVG/1.1/DTD/svg11.dtd" >
<svg xmlns="http://www.w3.org/2000/svg">
<metadata>Generated by IcoMoon</metadata>
<defs>
<font id="jw-nhac-icons" horiz-adv-x="1024">
<font-face units-per-em="1024" ascent="960" descent="-64" />
<missing-glyph horiz-adv-x="1024" />
<glyph unicode="&#x20;" horiz-adv-x="512" d="" />
<glyph unicode="&#xe600;" glyph-name="audio-tracks" horiz-adv-x="1536" d="M319.968 29.952v-29.952c-123.712 0-224 100.288-224 224 0 32.832 7.104 63.968 19.68 92.096-12.672 41.856-19.68 86.016-19.68 131.872 0 247.456 200.512 448.032 448 448.032 247.424 0 447.968-200.576 447.968-448.032 0-45.92-6.912-90.112-19.68-131.872 12.704-28.128 19.68-59.264 19.68-92.096 0-123.712-100.32-224-224-224v448c55.584 0 106.304-20.16 145.6-53.792 2.496 17.696 3.712 35.52 3.712 53.792 0 206.112-167.264 373.376-373.312 373.376s-373.344-167.264-373.344-373.376c0-18.208 1.248-36.096 3.712-53.792 39.36 33.632 90.112 53.792 145.6 53.792v-418.048h0.064zM917.312 896v-149.344h522.688v149.344h-522.688zM1066.624 672.032v-149.312h373.376v149.312h-373.376zM1141.344 448v-149.344h298.656v149.344h-298.656z" />
<glyph unicode="&#xe601;" glyph-name="buffer" d="M512 960c-35.328 0-64-28.672-64-64v-128c0-35.328 28.672-64 64-64s64 28.672 64 64v128c0 35.328-28.672 64-64 64zM512 192c-35.328 0-64-28.608-64-64v-128c0-35.392 28.672-64 64-64s64 28.608 64 64v128c0 35.392-28.672 64-64 64zM783.488 628.992l90.496 90.56c25.024 24.96 25.024 65.536 0 90.496-24.96 25.024-65.472 25.024-90.496 0l-90.496-90.496c-25.024-25.024-25.024-65.536 0-90.56 25.024-24.96 65.536-24.96 90.496 0zM240.448 267.008l-90.496-90.496c-25.024-25.024-25.024-65.536 0-90.496 24.96-25.024 65.472-25.024 90.496 0l90.496 90.496c25.024 25.024 25.024 65.472 0 90.496-24.96 24.96-65.472 24.96-90.496 0zM240.448 810.048c-25.024 25.024-65.536 25.024-90.496 0-25.024-24.96-25.024-65.536 0-90.496l90.496-90.56c25.024-24.96 65.536-24.96 90.496 0 25.024 25.024 25.024 65.536 0 90.56l-90.496 90.496zM783.488 267.008c-25.024 25.024-65.472 25.024-90.496 0s-25.024-65.472 0-90.496l90.496-90.496c25.024-25.024 65.536-25.024 90.496 0 25.024 24.96 25.024 65.472 0 90.496l-90.496 90.496zM960 512h-128c-35.392 0-64-28.672-64-64s28.608-64 64-64h128c35.392 0 64 28.672 64 64s-28.608 64-64 64zM256 448c0 35.328-28.672 64-64 64h-128c-35.328 0-64-28.672-64-64s28.672-64 64-64h128c35.328 0 64 28.672 64 64z" />
<glyph unicode="&#xe604;" glyph-name="cc.jw-off" d="M217.731 6.817c-16.269 0-32.346 6.66-44.135 18.221l-12.747 12.364-81.572 81.802c-23.12 23.158-24.69 59.523-3.828 84.75l418.886 503.827c5.971 7.158 15.274 10.986 24.269 10.45 9.264-0.612 17.723-5.627 22.775-13.513 26.336-41.571 63.428-80.731 99.641-116.903 30.202-30.126 65.648-64.5 104.157-90.798l2.986-2.181c2.718-1.99 5.321-3.904 8.23-5.665 8-4.862 13.283-13.322 13.972-22.738 0.766-9.417-3.139-18.565-10.335-24.613l-502.449-420.302c-10.527-9.417-24.537-14.699-39.849-14.699zM514.775 641.098l-394.387-474.39c-1.569-1.875-1.607-4.517-0.038-6.086l15.349-15.006 78.625-78.893c3.101-3.024 4.631-1.569 5.13-1.11l474.123 396.646c-34.757 26.221-66.299 56.921-93.745 84.29-29.322 29.398-59.371 60.749-85.056 94.549zM809.905 418.315c-3.598 0-7.388 0.229-10.756 0.535-72.577 5.244-138.837 65.954-200.429 127.66-61.935 61.973-122.799 128.541-127.775 201.003-1.684 24.46 2.909 48.384 13.742 70.931 9.34 19.943 23.618 39.581 42.299 58.108 53.858 53.781 125.211 83.449 200.964 83.449s147.068-29.666 200.849-83.524c53.667-53.59 83.295-124.98 83.257-200.964-0.038-75.907-29.628-147.145-83.333-200.62-20.479-20.134-38.967-33.647-58.183-42.605-19.599-9.226-40.039-13.934-60.634-13.972v0zM727.913 901.662c-60.175 0-116.903-23.58-159.814-66.452-13.857-13.78-24.154-27.791-30.738-41.762-6.66-13.78-9.264-27.408-8.306-41.954 3.598-52.366 56.73-109.631 110.817-163.757 63.85-64.002 116.253-107.296 164.255-110.779 2.373-0.229 4.096-0.345 5.703-0.345 12.058 0 23.886 2.756 35.905 8.421 12.977 6.010 26.604 16.23 41.877 31.235 42.451 42.336 66.031 98.913 66.031 159.202 0 60.366-23.465 117.057-66.185 159.661-42.796 42.873-99.449 66.452-159.623 66.452l0.077 0.077zM168.963 99.643c-10.833 11.981-29.245 12.939-41.188 2.106-10.259-9.226-71.582-78.663-115.833-128.655 18.681-13.322 26.948-25.991 45.284-36.135 31.274 34.681 74.146 89.343 109.708 121.573 11.905 10.756 12.823 29.245 2.029 41.111zM877.66 192.202l-100.521-102.282 100.521-102.357-52.251-51.562-99.755 101.286-99.41-101.286-52.672 51.562 100.521 102.357-100.521 102.282 52.672 51.6 99.41-101.248 99.755 101.248z" />
<glyph unicode="&#xe605;" glyph-name="cc" d="M217.425 5.889c-16.285 0-32.378 6.667-44.178 18.276l-12.759 12.338-81.651 81.92c-23.142 23.142-24.714 59.582-3.831 84.832l419.294 504.278c5.978 7.165 15.289 10.996 24.292 10.461 9.273-0.613 17.741-5.632 22.798-13.525 26.362-41.612 63.49-80.809 99.737-117.018 30.231-30.155 65.712-64.563 104.258-90.885l2.989-2.185c2.72-1.993 5.364-3.908 8.238-5.67 8.009-4.866 13.334-13.334 13.985-22.759 0.804-9.426-3.142-18.583-10.346-24.637l-502.938-420.711c-10.537-9.426-24.561-14.714-39.887-14.714zM514.758 640.787l-394.771-474.852c-1.571-1.877-1.61-4.522-0.038-6.093l15.364-15.020 78.702-79.008c3.104-3.027 4.637-1.571 5.134-1.111l474.584 397.032c-34.791 26.246-66.364 56.976-93.836 84.372-29.35 29.466-59.428 60.846-85.138 94.679zM810.176 417.788c-3.602 0-7.395 0.229-10.767 0.537-72.647 5.249-138.973 66.019-200.585 127.785-61.996 62.034-122.918 128.666-127.9 201.198-1.685 24.484 2.912 48.432 13.756 70.999 9.349 19.963 23.642 39.619 42.339 58.164 53.872 53.835 125.332 83.53 201.159 83.53s147.211-29.695 201.007-83.605c53.719-53.643 83.414-125.102 83.376-201.159-0.038-75.981-29.618-147.287-83.453-200.815-20.461-20.155-39.006-33.68-58.24-42.645-19.618-9.234-40.079-13.947-60.692-13.985v0zM728.103 901.605c-60.233 0-117.018-23.603-159.97-66.516-13.871-13.794-24.177-27.818-30.768-41.803-6.705-13.794-9.273-27.435-8.353-41.995 3.641-52.416 56.747-109.738 110.963-163.917 63.911-64.065 116.366-107.401 164.415-110.886 2.375-0.229 4.062-0.345 5.67-0.345 12.031 0 23.909 2.758 35.94 8.43 13.027 6.016 26.629 16.246 41.956 31.266 42.454 42.378 66.133 99.009 66.133 159.357 0 60.425-23.488 117.171-66.249 159.817-42.837 42.914-99.584 66.516-159.817 66.516l0.077 0.077zM168.611 98.805c-10.844 11.993-29.274 12.95-41.228 2.108-10.269-9.234-71.651-78.739-115.945-128.781 18.699-13.334 26.975-26.017 45.328-36.132 31.305 34.715 74.219 89.429 109.814 121.692 11.917 10.729 12.836 29.235 2.031 41.114z" />
<glyph unicode="&#xe607;" glyph-name="error" horiz-adv-x="1152" d="M1037.12 148.816l-400.608 685.952c-33.408 33.408-87.616 33.408-121.024 0l-400.64-685.952c-33.408-33.376-33.408-87.552 0-120.992h922.24c33.472 33.44 33.472 87.616 0.032 120.992zM539.104 588.528c0 26.528 21.504 48 48 48s48-21.472 48-48v-224c0-26.496-21.504-48-48-48s-48 21.504-48 48v224zM587.392 156.272c-26.496 0-48 21.44-48 48 0 26.496 21.504 48 48 48s48-21.504 48-48c0-26.56-21.504-48-48-48z" />
<glyph unicode="&#xe608;" glyph-name="fullscreen" d="M999.617 611.254c-13.459 0-24.381 10.907-24.381 24.381v156.883c0 65.471-53.248 118.719-118.719 118.719h-166.44c-13.459 0-24.381 10.907-24.381 24.381s10.922 24.381 24.381 24.381h166.44c92.355 0 167.48-75.126 167.48-167.48v-156.883c0-13.474-10.922-24.381-24.381-24.381zM24.382 611.254c-13.474 0-24.381 10.907-24.381 24.381v156.883c0 92.355 75.126 167.48 167.464 167.48h178.37c13.474 0 24.381-10.907 24.381-24.381s-10.922-24.381-24.396-24.381h-178.355c-65.455 0-118.702-53.248-118.702-118.719v-156.883c0-13.474-10.907-24.381-24.381-24.381zM345.82-63.999h-178.355c-92.339 0-167.464 75.126-167.464 167.48v187.96c0 13.459 10.907 24.381 24.381 24.381s24.381-10.922 24.381-24.381v-187.96c0-65.455 53.248-118.719 118.702-118.719h178.37c13.474 0 24.381-10.922 24.381-24.381s-10.922-24.381-24.396-24.381zM856.517-63.999h-166.44c-13.459 0-24.381 10.922-24.381 24.381s10.922 24.381 24.381 24.381h166.44c65.455 0 118.719 53.248 118.719 118.719v187.96c0 13.459 10.922 24.381 24.381 24.381s24.381-10.922 24.381-24.381v-187.96c0-92.355-75.126-167.48-167.48-167.48z" />
<glyph unicode="&#xe609;" glyph-name="hd.jw-off" horiz-adv-x="1120" d="M986.806 555.374h-52.24c-5.818 0-11.605 0-11.605 5.803-5.818 17.424-11.605 40.65-23.211 58.058 0 0-5.818 5.803 0 11.605l40.634 40.665c29.029 29.091 29.029 69.756 0 98.785l-58.058 58.058c-14.538 11.605-33.389 17.408-51.557 17.408s-35.623-5.803-47.259-17.408l-40.634-40.65c0 0-5.803 0-11.605 0-17.408 5.818-40.634 17.424-58.042 23.226 0 5.803-5.818 5.803-5.818 11.605v52.271c0.016 40.634-34.816 69.663-69.632 69.663h-75.481c-40.634 0-69.663-34.832-69.663-69.663v-52.24c0-5.803 0-11.621-5.803-11.621-17.424-5.803-40.65-11.605-58.058-23.211-2.901-2.901-4.36-4.36-5.803-4.36-1.458 0-2.901 1.458-5.803 4.36l-40.65 40.634c-14.553 11.621-33.435 17.424-51.603 17.424s-35.592-5.818-47.197-17.424l-58.058-58.058c-29.029-29.029-29.029-69.694 0-98.785l40.634-40.665c0-5.803 0-5.803 0-11.605-5.803-17.408-17.408-34.832-23.211-58.042-5.803 0-5.803-5.803-11.621-5.803h-52.271c-40.634-0.031-69.663-34.863-69.663-69.694v-75.466c0-40.634 34.832-69.663 69.663-69.663h52.24c5.818 0 11.621 0 11.621-5.803 5.803-17.408 11.605-40.634 23.211-58.042 0 0 5.803-5.803 0-11.621l-40.634-40.619c-29.029-29.091-29.029-69.787 0-98.816l58.058-58.058c14.522-11.605 33.404-17.392 51.557-17.392s35.607 5.787 47.244 17.392l40.65 40.634c0 0 5.803 0 11.605 0 23.211-11.605 46.437-23.211 69.663-29.029v-58.027c0-40.634 34.832-69.663 69.663-69.663h75.466c34.832 0 63.845 29.029 63.845 69.663v52.24c0 5.787 0 11.605 5.818 11.605 17.408 5.787 40.634 11.605 58.042 23.211 2.901 2.917 4.344 4.344 5.803 4.344s2.917-1.458 5.803-4.344l40.65-40.634c14.553-11.605 33.451-17.424 51.603-17.424s35.576 5.818 47.182 17.424l58.058 58.058c29.029 29.029 29.029 69.725 0 98.816l-40.634 40.619c0 5.803 0 5.803 0 11.605 5.818 17.408 17.424 34.832 23.211 58.058 5.818 0 5.818 5.803 11.636 5.803h52.224c40.634 0 69.663 34.832 69.663 69.663v75.466c0.031 40.65-34.8 69.663-69.632 69.663zM578.447 299.948c-81.253 0-145.129 63.86-145.129 145.129 0 81.284 63.86 145.129 145.129 145.129s145.129-63.845 145.129-145.129c0-81.268-63.86-145.129-145.129-145.129z" />
<glyph unicode="&#xe60a;" glyph-name="hd" horiz-adv-x="1120" d="M562.934 528.152c47.368 0 83.068-35.716 83.068-83.068s-35.716-83.068-83.068-83.068-83.068 35.716-83.068 83.068 35.7 83.068 83.068 83.068zM562.934 590.212c-81.268 0-145.129-63.845-145.129-145.129 0-81.268 63.86-145.129 145.129-145.129s145.129 63.86 145.129 145.129c0 81.284-63.86 145.129-145.129 145.129v0zM597.765 882.409c1.458 0 7.602-2.544 7.602-7.602v-52.255c0-10.442 2.343-24.84 12.257-39.145 7.184-14.491 19.937-25.972 35.995-31.341 6.268-2.095 15.422-6.004 24.25-9.806 11.124-4.763 22.621-9.697 33.745-13.405 6.33-2.11 12.986-3.196 19.673-3.196h11.605c16.462 0 32.24 6.532 43.877 18.168l39.315 39.315c0.884 0.248 2.482 0.574 4.701 0.574 4.003 0 8.223-1.055 11.186-2.731l54.567-54.567c4.779-4.779 4.779-6.222-0.016-11.031l-40.619-40.65c-25.476-25.46-27.648-64.109-6.594-91.834 4.034-7.152 7.897-19.518 11.062-29.634 0.993-3.165 1.955-6.237 2.917-9.185 6.625-24.483 27.819-50.766 71.323-50.766h52.255c0.776 0 3.181-0.667 5.291-2.638 2.281-2.188 2.281-4.049 2.281-4.965v-75.466c0-1.458-2.529-7.602-7.602-7.602h-52.24c-10.426 0-24.778-2.327-39.083-12.195-15.95-7.882-28.222-22.466-32.752-40.619-2.001-8.006-5.741-15.996-10.069-25.259-3.894-8.316-8.301-17.765-11.807-28.222-2.11-6.315-3.181-12.955-3.181-19.627v-11.605c0-16.462 6.547-32.24 18.184-43.877l40.588-40.588c4.841-4.856 4.841-6.299 0.047-11.109l-56.739-56.723c-0.884-0.264-2.451-0.559-4.624-0.559-4.018 0-8.27 1.071-11.264 2.762l-37.081 37.050c-6.16 6.175-22.528 22.606-49.742 22.606-20.558 0-34.94-9.371-43.396-16.632-7.277-3.77-18.82-7.401-28.362-10.38-3.165-0.977-6.237-1.955-9.185-2.917-24.483-6.625-50.781-27.819-50.781-71.323v-52.24c0-5.244-1.753-7.432-1.784-7.602h-75.466c-1.458 0-7.602 2.529-7.602 7.602v58.042c0 28.47-19.363 53.295-46.98 60.199-16.663 4.189-36.243 13.964-56.987 24.343-8.626 4.298-18.122 6.547-27.757 6.547h-11.605c-16.462 0-32.24-6.532-43.877-18.168l-39.315-39.3c-0.884-0.264-2.482-0.574-4.701-0.574-3.987 0-8.223 1.055-11.186 2.731l-54.567 54.582c-4.779 4.794-4.779 6.222 0.016 11.031l40.696 40.696c25.398 25.46 27.57 64.078 6.532 91.788-4.018 7.137-7.897 19.503-11.062 29.603-0.993 3.165-1.955 6.253-2.917 9.216-6.625 24.467-27.819 50.75-71.323 50.75h-52.271c-1.458 0-7.602 2.529-7.602 7.602v75.466c0 1.458 2.544 7.618 7.602 7.618h52.24c10.426 0 24.778 2.327 39.083 12.195 15.95 7.882 28.222 22.466 32.752 40.619 2.001 7.99 5.741 15.981 10.069 25.228 3.894 8.332 8.316 17.765 11.807 28.238 2.11 6.33 3.181 12.955 3.181 19.627v11.605c0 16.462-6.532 32.225-18.153 43.861l-40.603 40.65c-4.825 4.841-4.841 6.284-0.047 11.062l56.739 56.754c0.869 0.248 2.451 0.559 4.639 0.559 4.003 0 8.254-1.071 11.233-2.762l37.143-37.128c6.16-6.16 22.528-22.528 49.68-22.528 20.558 0 34.925 9.371 43.38 16.601 7.277 3.786 18.851 7.416 28.408 10.395 3.165 0.993 6.237 1.955 9.185 2.917 24.483 6.625 50.75 27.819 50.75 71.323v52.224c0 1.458 2.544 7.602 7.602 7.602h75.481zM597.765 944.47h-75.466c-40.634 0-69.663-34.832-69.663-69.663v-52.24c0-5.803 0-11.621-5.803-11.621-17.424-5.803-40.65-11.605-58.058-23.211-2.901-2.901-4.36-4.36-5.803-4.36-1.458 0-2.901 1.458-5.803 4.36l-40.65 40.634c-14.553 11.621-33.435 17.424-51.603 17.424s-35.592-5.818-47.197-17.424l-58.058-58.058c-29.029-29.029-29.029-69.694 0-98.785l40.634-40.665c0-5.803 0-5.803 0-11.605-5.803-17.408-17.408-34.832-23.211-58.042-5.803 0-5.803-5.803-11.621-5.803h-52.271c-40.634-0.031-69.663-34.863-69.663-69.694v-75.466c0-40.634 34.832-69.663 69.663-69.663h52.24c5.818 0 11.621 0 11.621-5.803 5.803-17.408 11.605-40.634 23.211-58.042 0 0 5.803-5.803 0-11.621l-40.634-40.634c-29.029-29.091-29.029-69.787 0-98.8l58.058-58.058c14.522-11.605 33.404-17.408 51.557-17.408s35.607 5.803 47.244 17.408l40.65 40.634c0 0 5.803 0 11.605 0 23.211-11.605 46.437-23.211 69.663-29.029v-58.042c0-40.634 34.832-69.663 69.663-69.663h75.466c34.832 0 63.845 29.029 63.845 69.663v52.24c0 5.803 0 11.605 5.818 11.605 17.408 5.803 40.634 11.605 58.042 23.211 2.901 2.917 4.344 4.36 5.803 4.36s2.901-1.458 5.803-4.36l40.665-40.634c14.553-11.605 33.435-17.408 51.603-17.408 18.153 0 35.576 5.803 47.182 17.408l58.058 58.058c29.029 29.029 29.029 69.725 0 98.816l-40.634 40.634c0 5.803 0 5.803 0 11.605 5.803 17.408 17.408 34.832 23.211 58.058 5.803 0 5.803 5.803 11.621 5.803h52.24c40.634 0 69.663 34.832 69.663 69.663v75.466c0.016 40.65-34.816 69.663-69.648 69.663h-52.255c-5.803 0-11.605 0-11.605 5.803-5.803 17.424-11.605 40.65-23.211 58.058 0 0-5.803 5.803 0 11.605l40.634 40.665c29.029 29.091 29.029 69.756 0 98.785l-58.058 58.058c-14.522 11.605-33.389 17.408-51.557 17.408s-35.607-5.803-47.244-17.408l-40.65-40.65c0 0-5.803 0-11.605 0-17.408 5.818-40.634 17.424-58.042 23.226 0 5.803-5.818 5.803-5.818 11.605v52.271c0.031 40.634-34.8 69.663-69.632 69.663v0z" />
<glyph unicode="&#xe60b;" glyph-name="jw-logo" d="M983.68 647.456h-252.8c16.992-26.432 29.536-56 36.416-87.616h244.288c-6.848 30.912-16.448 60.736-28.608 89.216 0.224-0.512 0.512-1.056 0.704-1.6zM1014.368 547.008c-0.672 2.912-1.184 5.888-1.824 8.736 0.64-2.848 1.152-5.824 1.824-8.736zM11.424 555.744c-0.64-2.848-1.216-5.792-1.824-8.704 0.544 2.912 1.216 5.888 1.824 8.704zM234.624 456.064v45.824c0 14.24 1.152 28.128 3.232 41.792h-228.8c-5.408-28.448-8.416-57.728-8.896-87.616h234.464zM40.736 648.544c-12.064-28.288-21.568-57.984-28.384-88.704h228.544c6.976 31.616 19.392 61.184 36.384 87.616h-236.992c0.16 0.352 0.288 0.704 0.448 1.056zM396.352 439.968h215.584v-87.648h-215.584v87.648zM603.488 543.744h-198.752c-5.376-12.864-8.384-27.008-8.384-41.792v-45.824h215.584v45.824c0 14.816-3.008 28.928-8.416 41.792zM504.16 609.696c-38.24 0-71.712-19.904-90.816-49.856h181.568c-19.168 29.952-52.64 49.856-90.752 49.856zM773.632 456.064h250.176c-0.448 29.888-3.488 59.168-8.864 87.616h-244.576c2.112-13.664 3.232-27.552 3.232-41.792v0-45.824zM773.632 232.48v-53.888h-161.696v53.888h-215.584v-53.888h-161.696v53.888h-187.040c81.376-175.072 258.688-296.48 464.384-296.48s382.976 121.376 464.352 296.48h-202.72zM773.632 439.968v-87.648h241.344c5.376 28.544 8.416 57.792 8.864 87.648h-250.208zM1011.584 336.224h-237.984v-87.584h210.112c11.84 27.968 21.184 57.184 27.872 87.584zM9.088 352.288h225.536v87.648h-234.464c0.48-29.888 3.488-59.136 8.896-87.648zM288.48 663.584c49.184 65.408 127.488 107.776 215.648 107.776 88.128 0 166.336-42.336 215.52-107.776h256.64c-81.408 175.072-258.624 296.416-464.352 296.416s-383.008-121.344-464.384-296.416h240.896zM1012.544 340.192c0.64 2.912 1.152 5.888 1.824 8.896-0.64-3.008-1.184-5.984-1.824-8.896zM234.624 248.64v87.584h-222.208c6.72-30.4 16-59.616 27.904-87.584h194.304zM9.6 349.056c0.544-2.976 1.216-5.952 1.856-8.864-0.608 2.912-1.312 5.888-1.856 8.864zM611.904 254.912v81.312h-215.584v-87.584h215.584z" />
<glyph unicode="&#xe60c;" glyph-name="next" d="M145.597 874.467c2.488-1.302 5.319-2.944 8.452-5.054l598.97-399.006c14.312-9.565 19.527-18.615 19.527-22.423s-5.155-12.888-19.527-22.396l-598.97-399.091c-3.135-2.051-5.974-3.752-8.452-5.081-0.294 2.812-0.483 6.079-0.483 9.83v833.399c0 3.752 0.191 7.018 0.483 9.801zM133.954 959.991c-41.569 0-69.88-34.465-69.88-95.324v-833.343c0-60.887 28.311-95.324 69.88-95.324 19.318 0 41.494 7.426 65.019 23.097l598.97 399.006c74.173 49.405 74.173 130.273 0 179.707l-598.97 399.064c-23.524 15.689-45.699 23.126-65.019 23.126v0zM919.411-24.699c-22.366 0-40.514 18.148-40.514 40.514v864.351c0 22.396 18.148 40.514 40.514 40.514s40.514-18.12 40.514-40.514v-864.351c0-22.366-18.148-40.514-40.514-40.514z" />
<glyph unicode="&#xe60d;" glyph-name="pause" d="M512 912c255.84 0 464-208.144 464-464 0-255.84-208.16-464-464-464-255.856 0-464 208.16-464 464 0 255.856 208.144 464 464 464zM512 960c-282.752 0-512-229.248-512-512s229.248-512 512-512 512 229.248 512 512-229.248 512-512 512v0zM341.376 284.4c0-35.2 25.584-64 56.832-64s56.832 28.8 56.832 64v327.264c0 35.2-25.584 64-56.832 64s-56.832-28.8-56.832-64v-327.264zM568.976 284.4c0-35.2 25.584-64 56.832-64s56.832 28.8 56.832 64v327.264c0 35.2-25.584 64-56.832 64s-56.832-28.8-56.832-64v-327.264z" />
<glyph unicode="&#xe60e;" glyph-name="play" d="M512 911.999c255.84 0 463.999-208.144 463.999-463.999 0-255.84-208.16-463.999-463.999-463.999-255.856 0-463.999 208.16-463.999 463.999 0 255.856 208.144 463.999 463.999 463.999zM512 960c-282.752 0-512-229.248-512-512s229.248-512 512-512 512 229.248 512 512-229.248 512-512 512v0zM419.807 592.368l250.128-144.368-250.128-144.352v288.72zM410.32 644.895c-22.768 0-38.512-18.128-38.512-49.392v-295.008c0-31.248 15.728-49.392 38.496-49.392 9.296 0 19.744 3.008 30.784 9.392l255.552 147.504c38.112 22 38.112 58 0 80l-255.552 147.52c-11.024 6.352-21.472 9.376-30.768 9.376v0z" />
<glyph unicode="&#xe610;" glyph-name="replay" horiz-adv-x="896" d="M780.8 611.2c35.2-57.6 54.4-124.8 54.4-195.2 0-211.2-172.8-384-384-384s-384 172.8-384 384 172.8 384 384 384v128l320-172.8-320-179.2v128c-160 0-288-128-288-288s128-288 288-288 288 128 288 288c0 54.4-16 105.6-41.6 147.2l83.2 48z" />
<glyph unicode="&#xe611;" glyph-name="volume.jw-off" horiz-adv-x="1248" d="M1213.004 261.962c-7.709 0-15.416 2.939-21.297 8.821l-335.649 335.669c-11.763 11.762-11.762 30.832 0.001 42.593s30.832 11.76 42.593-0.001l335.647-335.669c11.763-11.762 11.762-30.832-0.001-42.593-5.879-5.88-13.587-8.82-21.294-8.82v0zM877.355 261.98c-7.708 0-15.415 2.938-21.296 8.819-11.763 11.763-11.764 30.831-0.002 42.593l335.648 335.651c11.762 11.762 30.831 11.762 42.593 0s11.763-30.831 0.001-42.593l-335.647-335.65c-5.881-5.879-13.589-8.82-21.297-8.82v0zM747.817 897.372v-895.883l-299.439 216.729c-36.359 27.173-70.093 47.949-144.325 47.949h-146.973v367.381h146.973c74.197 0 105.175 18.803 140.86 45.372 2.63 1.955 5.367 3.981 8.067 5.936l293.488 211.646c0.498 0.337 0.923 0.639 1.349 0.87v0zM751.104 960c-12.727 0-26.43-4.123-39.811-13.542l-294.034-212.054c-31.474-22.837-47.078-39.773-113.207-39.773h-156.091c-12.227 0-27.511-6.078-36.682-15.284-9.17-9.152-15.284-21.362-15.284-36.664v-385.633c0-15.284 6.114-27.582 15.284-36.664 9.17-9.242 24.454-15.301 36.682-15.301h156.091c63.89 0 84.363-18.518 113.207-39.826l299.777-216.889c11.002-8.442 23.547-12.369 35.723-12.369 29.039 0 56.16 22.304 56.16 58.665v906.154c-0.020 33.287-25.93 59.18-57.813 59.18h-0.002zM343.932 207.758c-16.495 0-29.867 13.371-29.867 29.866v425.354c0 16.495 13.372 29.867 29.867 29.867s29.867-13.372 29.867-29.867v-425.354c0-16.495-13.372-29.866-29.867-29.866z" />
<glyph unicode="&#xe612;" glyph-name="volume" horiz-adv-x="1248" d="M1000.776 142.159c-6 0-12.058 1.803-17.313 5.552-13.431 9.577-16.554 28.229-6.979 41.657 85.484 119.88 111.774 244.186 78.142 369.466-25.096 93.473-74.939 151.56-75.44 152.136-10.821 12.449-9.502 31.313 2.946 42.135 12.45 10.822 31.313 9.502 42.136-2.946 2.412-2.775 59.421-69.203 88.049-175.836 16.86-62.804 20.437-126.698 10.626-189.91-12.181-78.488-45.093-155.778-97.822-229.724-5.831-8.173-15.018-12.53-24.345-12.53v0zM907.918 235.178c-5.997 0-12.051 1.801-17.308 5.546-13.434 9.572-16.563 28.224-6.99 41.655 55.151 77.397 72.155 157.459 50.538 237.96-15.887 59.156-47.867 97.086-48.187 97.452-10.823 12.448-9.505 31.313 2.943 42.135s31.313 9.503 42.135-2.944c1.67-1.921 41.12-47.88 60.797-121.151 11.604-43.21 14.066-87.186 7.321-130.705-8.352-53.871-30.86-106.832-66.902-157.412-5.825-8.176-15.017-12.536-24.347-12.536v0zM747.818 897.372v-895.883l-299.439 216.729c-36.361 27.173-70.093 47.949-144.325 47.949h-146.973v367.381h146.973c74.197 0 105.175 18.803 140.86 45.372 2.63 1.955 5.367 3.981 8.066 5.936l293.488 211.646c0.498 0.337 0.924 0.639 1.35 0.87v0 0zM751.105 960c-12.725 0-26.427-4.123-39.809-13.542l-294.036-212.054c-31.474-22.837-47.078-39.773-113.207-39.773h-156.091c-12.227 0-27.511-6.078-36.682-15.284-9.17-9.152-15.284-21.362-15.284-36.664v-385.633c0-15.284 6.114-27.582 15.284-36.664 9.17-9.242 24.454-15.301 36.682-15.301h156.091c63.89 0 84.363-18.518 113.207-39.826l299.777-216.889c11.001-8.442 23.547-12.369 35.722-12.369 29.039 0 56.16 22.304 56.16 58.665v906.154c-0.018 33.287-25.931 59.18-57.812 59.18h-0.002zM343.933 207.758c-16.495 0-29.867 13.371-29.867 29.866v425.354c0 16.495 13.372 29.867 29.867 29.867s29.867-13.372 29.867-29.867v-425.354c0-16.495-13.372-29.866-29.867-29.866z" />
<glyph unicode="&#xe613;" glyph-name="fullscreen.jw-off" d="M999.619 611.254h-166.44c-92.355 0-167.481 75.126-167.481 167.465v156.9c0 13.474 10.922 24.381 24.381 24.381s24.381-10.907 24.381-24.381v-156.9c0-65.455 53.248-118.702 118.719-118.702h166.44c13.459 0 24.381-10.907 24.381-24.381s-10.922-24.381-24.381-24.381zM202.85 611.254h-178.468c-13.474 0-24.381 10.907-24.381 24.381s10.907 24.381 24.381 24.381h178.452c65.389 0 118.605 53.248 118.605 118.702v156.9c0 13.474 10.907 24.381 24.381 24.381s24.381-10.907 24.381-24.381v-156.9c0-92.339-75.076-167.465-167.351-167.465zM345.821-64c-13.474 0-24.381 10.922-24.381 24.381v188.025c0 65.389-53.199 118.605-118.605 118.605h-178.452c-13.474 0-24.381 10.922-24.381 24.381s10.907 24.381 24.381 24.381h178.452c92.29 0 167.367-75.076 167.367-167.367v-188.025c0-13.459-10.907-24.381-24.381-24.381zM690.079-64c-13.459 0-24.381 10.922-24.381 24.381v188.025c0 92.29 75.126 167.367 167.481 167.367h166.44c13.459 0 24.381-10.922 24.381-24.381s-10.922-24.381-24.381-24.381h-166.44c-65.455 0-118.719-53.199-118.719-118.605v-188.025c0-13.459-10.922-24.381-24.381-24.381z" />
<glyph unicode="&#xe615;" glyph-name="close" d="M675.2 448l246.4-246.4c48-48 48-124.8 0-163.2-48-48-124.8-48-163.2 0l-246.4 246.4-246.4-246.4c-48-48-124.8-48-163.2 0-48 48-48 124.8 0 163.2l246.4 246.4-246.4 246.4c-48 48-48 124.8 0 163.2 48 48 124.8 48 163.2 0l246.4-246.4 246.4 246.4c48 48 124.8 48 163.2 0 48-48 48-124.8 0-163.2l-246.4-246.4z" />
<glyph unicode="&#xe900;" glyph-name="rewind" horiz-adv-x="1120" d="M560-48.485c-273.765 0-496.485 222.704-496.485 496.485s222.72 496.485 496.485 496.485c31.325 0 62.666-2.932 93.184-8.735 16.834-3.196 27.896-19.44 24.7-36.274-3.212-16.818-19.363-27.881-36.274-24.7-26.717 5.073-54.163 7.649-81.61 7.649-239.538 0-434.424-194.886-434.424-434.424s194.886-434.424 434.424-434.424 434.424 194.886 434.424 434.424c0 129.164-56.925 250.771-156.176 333.607-13.172 10.985-14.926 30.549-3.941 43.706s30.549 14.91 43.691 3.941c113.431-94.689 178.486-233.643 178.486-381.269 0-273.749-222.72-496.469-496.485-496.469zM847.154 637.191c-16.353 0-30.053 12.784-30.953 29.324l-8.58 155.074c-0.946 17.098 12.133 31.713 29.231 32.69l157.091 8.921c17.005 1.024 31.775-12.117 32.737-29.215s-12.117-31.76-29.231-32.737l-126.154-7.168 6.858-124.137c0.946-17.113-12.164-31.744-29.277-32.69-0.559-0.047-1.148-0.062-1.722-0.062zM417.508 240.438c-17.129 0-31.030 13.902-31.030 31.030v226.645l-30.022-30.068c-12.117-12.133-31.76-12.148-43.892-0.031s-12.148 31.76-0.031 43.892l83.006 83.146c8.875 8.89 22.233 11.543 33.823 6.749 11.605-4.81 19.161-16.12 19.161-28.672v-301.646c0.016-17.16-13.886-31.046-31.015-31.046zM630.656 230.787c-76.257 0-138.302 62.045-138.302 138.302v106.387c0 76.257 62.045 138.287 138.302 138.287 76.241 0 138.271-62.045 138.271-138.287v-106.372c0-76.272-62.030-138.318-138.271-138.318zM630.656 551.703c-42.031 0-76.241-34.195-76.241-76.226v-106.372c0-42.046 34.211-76.241 76.241-76.241s76.21 34.195 76.21 76.241v106.372c0 42.031-34.18 76.226-76.21 76.226z" />
<glyph unicode="&#xe901;" glyph-name="airplay" horiz-adv-x="1280" d="M260 0l380 500 380-500zM1216 896h-1152v-768h212.9l48.6 64h-197.5v640h1024v-640h-197.5l48.6-64h212.9z" />
<glyph unicode="&#xe902;" glyph-name="playIcon" horiz-adv-x="1088" d="M284.81 823.408l650.421-375.408-650.421-375.367v750.775zM260.138 960c-59.205 0-100.145-47.139-100.145-128.437v-767.125c0-81.255 40.898-128.437 100.104-128.437 24.172 0 51.342 7.822 80.050 24.422l664.527 383.563c99.105 57.207 99.105 150.82 0 208.029l-664.484 383.563c-28.708 16.559-55.876 24.422-80.050 24.422v0z" />
<glyph unicode="&#xe903;" glyph-name="pauseIcon" horiz-adv-x="1088" d="M160.206 79.952c0-79.173 57.509-143.951 127.83-143.951s127.83 64.778 127.83 143.951v736.097c0 79.173-57.509 143.951-127.83 143.951s-127.83-64.778-127.83-143.951v-736.097zM672.135 79.952c0-79.173 57.545-143.951 127.83-143.951s127.83 64.778 127.83 143.951v736.097c0 79.173-57.545 143.951-127.83 143.951s-127.83-64.778-127.83-143.951v-736.097z" />
<glyph unicode="&#xe904;" glyph-name="back" d="M878.404 21.536c-2.488 1.302-5.319 2.944-8.452 5.054l-598.969 399.005c-14.312 9.565-19.527 18.615-19.527 22.423s5.155 12.888 19.527 22.395l598.969 399.091c3.135 2.051 5.974 3.752 8.452 5.081 0.292-2.812 0.483-6.079 0.483-9.828v-833.397c0-3.752-0.191-7.018-0.483-9.801zM890.044-63.987c41.569 0 69.88 34.465 69.88 95.324v833.339c0 60.887-28.311 95.324-69.88 95.324-19.318 0-41.493-7.426-65.019-23.099l-598.969-399.005c-74.173-49.405-74.173-130.273 0-179.706l598.969-399.064c23.524-15.689 45.699-23.126 65.019-23.126v0zM104.591 920.699c22.366 0 40.514-18.147 40.514-40.514v-864.347c0-22.395-18.147-40.514-40.514-40.514s-40.514 18.12-40.514 40.514v864.347c0 22.366 18.147 40.514 40.514 40.514z" />
<glyph unicode="&#xe905;" glyph-name="repeat-all" horiz-adv-x="1664" d="M1401.958 254.819c-9.813 0-19.634 3.73-27.127 11.199l-194.512 194.385c-14.979 14.954-14.979 39.242-0.026 54.221 14.979 15.004 39.267 14.979 54.246 0.026l167.519-167.392 169.846 168.493c15.054 14.903 39.343 14.803 54.221-0.201 14.929-15.030 14.828-39.317-0.201-54.246l-196.94-195.36c-7.493-7.41-17.256-11.123-27.018-11.123zM1399.402 276.14c-21.171 0-38.344 17.18-38.344 38.344v197.788c0 85.843-22.289 150.7-66.285 192.673-59.077 56.422-140.526 54.296-141.29 54.296l-888.211-0.026c-21.195 0-38.344 17.156-38.344 38.344s17.156 38.344 38.344 38.344h886.446c2.765 0.076 112.508 4.293 196.049-75.493 59.715-57.011 90.010-140.526 90.010-248.145v-197.788c-0.026-21.171-17.206-38.344-38.367-38.344zM65.078 364.899c-9.871 0-19.709 3.755-27.229 11.325-14.903 15.030-14.828 39.317 0.201 54.246l196.94 195.411c14.979 14.879 39.166 14.828 54.121-0.101l194.512-194.385c14.979-14.954 14.979-39.267 0-54.246s-39.267-14.979-54.246 0l-167.519 167.392-169.77-168.493c-7.493-7.436-17.256-11.149-27.018-11.149zM507.785 55.804c-21.726 0-117.054 4.395-191.572 75.543-59.715 57.011-90.010 140.5-90.010 248.145v197.788c0 21.195 17.156 38.344 38.344 38.344s38.344-17.156 38.344-38.344v-197.788c0-85.868 22.289-150.724 66.285-192.697 59.102-56.422 140.425-54.246 141.29-54.272l888.211 0.050c21.171 0 38.344-17.18 38.344-38.344s-17.18-38.344-38.344-38.344h-886.421c-0.31-0.026-1.865-0.076-4.47-0.076z" />
<glyph unicode="&#xe906;" glyph-name="repeat-non" horiz-adv-x="1664" d="M1401.92 254.783c-9.812 0-19.634 3.73-27.119 11.224l-194.486 194.36c-14.979 14.954-14.979 39.242 0 54.246 14.929 14.979 39.242 14.954 54.221 0l167.493-167.383 169.871 168.484c15.054 14.903 39.292 14.828 54.246-0.227 14.903-15.030 14.803-39.317-0.227-54.221l-196.964-195.376c-7.494-7.384-17.256-11.099-27.018-11.099zM1399.392 276.097c-21.172 0-38.343 17.18-38.343 38.343v197.813c0 85.843-22.288 150.665-66.285 192.672-59.052 56.397-140.702 54.296-141.29 54.272l-888.201-0.026c-21.187 0-38.343 17.156-38.343 38.343s17.156 38.343 38.343 38.343h886.436c2.739 0.026 112.483 4.344 196.049-75.459 59.715-57.035 90.010-140.526 90.010-248.144v-197.813c-0.026-21.172-17.206-38.343-38.367-38.343zM65.083 364.88c-9.872 0-19.709 3.755-27.229 11.325-14.903 15.030-14.828 39.317 0.201 54.246l196.889 195.376c14.979 14.879 39.166 14.853 54.121-0.101l194.562-194.385c14.979-14.954 14.979-39.242 0.026-54.246-14.979-14.979-39.242-14.954-54.221-0.026l-167.569 167.383-169.796-168.459c-7.459-7.409-17.231-11.123-26.993-11.123zM507.788 55.794c-21.725 0-117.078 4.394-191.571 75.543-59.715 57.011-90.010 140.491-90.010 248.119v197.813c0 21.187 17.156 38.343 38.343 38.343s38.343-17.156 38.343-38.343v-197.813c0-85.843 22.288-150.7 66.259-192.672 59.102-56.422 140.441-54.246 141.316-54.272l211.405 0.050c21.187 0 38.343-17.18 38.343-38.343s-17.156-38.343-38.343-38.343h-209.616c-0.311-0.026-1.865-0.076-4.469-0.076zM1102.008 71.698c-9.812 0-19.634 3.73-27.119 11.224l-239.323 239.197c-14.979 14.954-14.979 39.242 0 54.221s39.267 14.979 54.246 0l239.323-239.197c14.979-14.954 14.979-39.242 0-54.221-7.494-7.459-17.307-11.224-27.119-11.224zM862.685 71.698c-9.812 0-19.634 3.73-27.119 11.224-14.954 14.979-14.954 39.267 0 54.221l239.323 239.197c14.979 14.979 39.242 14.979 54.221 0s14.979-39.267 0-54.221l-239.323-239.197c-7.459-7.459-17.281-11.224-27.093-11.224z" />
<glyph unicode="&#xe907;" glyph-name="repeat-one" horiz-adv-x="1664" d="M1401.944 254.784c-9.812 0-19.634 3.73-27.119 11.224l-194.511 194.385c-14.979 14.954-14.979 39.242 0 54.246 14.929 14.979 39.242 14.954 54.221 0l167.519-167.392 169.846 168.484c15.054 14.903 39.317 14.828 54.221-0.201 14.929-15.030 14.828-39.317-0.201-54.246l-196.939-195.385c-7.494-7.384-17.256-11.123-27.018-11.123zM1399.381 276.148c-21.172 0-38.343 17.18-38.343 38.343v197.788c0 85.843-22.288 150.674-66.259 192.672-59.077 56.422-140.677 54.272-141.316 54.296l-888.2-0.026c-21.196 0-38.343 17.156-38.343 38.343s17.156 38.343 38.343 38.343h886.435c2.714 0.126 112.508 4.293 196.049-75.483 59.715-57.010 90.010-140.491 90.010-248.119v-197.788c-0.026-21.196-17.206-38.367-38.367-38.367zM65.077 364.881c-9.872 0-19.709 3.755-27.229 11.324-14.903 15.030-14.828 39.317 0.201 54.246l196.939 195.41c14.979 14.903 39.166 14.828 54.121-0.101l194.511-194.411c14.979-14.954 14.979-39.267 0-54.246s-39.267-14.979-54.246 0l-167.493 167.418-169.796-168.484c-7.494-7.435-17.256-11.149-27.018-11.149zM507.787 55.795c-21.725 0-117.053 4.394-191.545 75.518-59.715 57.035-90.010 140.526-90.010 248.144v197.813c0 21.196 17.156 38.343 38.343 38.343s38.343-17.156 38.343-38.343v-197.813c0-85.456 22.086-150.061 65.646-192.083 59.303-57.186 141.34-54.91 142.105-54.86l888.023 0.026c21.172 0 38.343-17.18 38.343-38.343s-17.18-38.343-38.343-38.343h-886.435c-0.311 0-1.865-0.050-4.469-0.050zM879.302 217.685c-21.172 0-38.343 17.18-38.343 38.343v268.189l-33.848-33.874c-14.979-14.954-39.267-15.004-54.221-0.050-14.979 14.954-15.004 39.242-0.050 54.221l99.309 99.469c10.963 10.989 27.455 14.29 41.795 8.359s23.7-19.91 23.7-35.427v-360.878c0-21.172-17.18-38.343-38.343-38.343z" />
<glyph unicode="&#xe908;" glyph-name="shuffle" horiz-adv-x="1408" d="M64.723 56.192c-0.47 0-0.809 0-1.040 0-23.473 0.3-42.291 19.542-42.036 43.014 0.278 23.326 19.265 42.036 42.522 42.036 0.108 0 0.232 0 0.362 0v0c0.062 0 0.147 0 0.232 0 11.544 0 213.957 3.044 393.922 203.6 211.345 235.457 391.518 392.366 582.935 392.366 0.871 0 1.765 0 2.658 0 180.32-1.34 294.284-1.34 294.284-1.34 23.473 0 42.522-19.050 42.522-42.522s-19.050-42.522-42.522-42.522c0 0-114.195 0-294.924 1.34-0.662 0-1.34 0-1.996 0-160 0-323.521-145.581-519.661-364.108-203.477-226.841-437.269-231.858-457.258-231.858zM1185.227 495.588c-10.889 0-21.77 4.145-30.084 12.461-16.584 16.606-16.584 43.546 0.023 60.152l124.744 124.683-125.423 126.571c-16.521 16.691-16.391 43.609 0.278 60.13 16.714 16.545 43.609 16.391 60.152-0.278l155.23-156.639c16.46-16.629 16.391-43.462-0.147-59.999l-154.682-154.598c-8.338-8.338-19.219-12.483-30.084-12.483zM1041.626 154.575c-191.486-0.023-371.614 156.871-582.935 392.343-179.943 200.587-382.332 203.6-393.922 203.6-0.193 0-0.316 0-0.424 0-23.349 0-42.414 18.818-42.606 42.183-0.193 23.434 18.518 42.591 41.951 42.861 10.103-0.193 250.145 0.169 458.298-231.858 196.904-219.42 360.132-365.387 521.642-364.108 180.659 1.34 294.839 1.34 294.946 1.34v0c23.473 0 42.522-19.050 42.522-42.522s-19.050-42.522-42.522-42.522c-0.085 0-114.003 0-294.307-1.34-0.848 0.023-1.765 0.023-2.636 0.023zM1184.673-0.131c-10.819 0-21.646 4.107-29.937 12.314-16.668 16.521-16.799 43.462-0.278 60.152l125.423 126.548-124.744 124.659c-16.606 16.606-16.606 43.546-0.023 60.152 16.606 16.606 43.546 16.584 60.152 0.023l154.682-154.598c16.545-16.56 16.606-43.392 0.147-60.022l-155.23-156.639c-8.292-8.377-19.242-12.584-30.193-12.584z" />
<glyph unicode="&#xe909;" glyph-name="sequence" horiz-adv-x="1408" d="M64.725 56.194c-0.47 0-0.809 0-1.040 0-23.473 0.3-42.291 19.542-42.036 43.014 0.278 23.326 19.265 42.036 42.522 42.036 0.108 0 0.232 0 0.362 0v0c0.062 0 0.147 0 0.232 0 11.544 0 213.957 3.044 393.922 203.6 211.345 235.457 391.518 392.366 582.935 392.366 0.871 0 1.765 0 2.658 0 180.32-1.34 294.284-1.34 294.284-1.34 23.473 0 42.522-19.050 42.522-42.522s-19.050-42.522-42.522-42.522c0 0-114.195 0-294.924 1.34-0.662 0-1.34 0-1.996 0-160 0-323.521-145.581-519.661-364.108-203.477-226.841-437.269-231.858-457.258-231.858zM1185.229 495.59c-10.889 0-21.77 4.145-30.084 12.461-16.584 16.606-16.584 43.546 0.023 60.152l124.744 124.683-125.423 126.571c-16.521 16.691-16.391 43.609 0.278 60.13 16.714 16.545 43.609 16.391 60.152-0.278l155.23-156.639c16.46-16.629 16.391-43.462-0.147-59.999l-154.682-154.598c-8.338-8.338-19.219-12.483-30.084-12.483zM1041.667 154.577c-95.762 0-194.861 39.694-302.815 121.339-18.733 14.18-22.455 40.842-8.292 59.575 14.18 18.756 40.842 22.455 59.575 8.292 92.642-70.078 174.964-104.139 251.57-104.139 0.639 0 1.294 0 1.957 0 180.598 1.34 294.777 1.34 294.924 1.34v0c23.473 0 42.522-19.050 42.522-42.522s-19.050-42.522-42.522-42.522c-0.085 0-114.003 0-294.307-1.34-0.871-0.023-1.741-0.023-2.612-0.023zM490.349 532.802c-11.651 0-23.257 4.762-31.656 14.141-179.943 200.563-382.332 203.6-393.922 203.6-0.193 0-0.3 0-0.424 0-23.349 0-42.414 18.818-42.591 42.183-0.193 23.434 18.518 42.591 41.951 42.861 10.103-0.193 250.145 0.169 458.298-231.858 15.689-17.477 14.226-44.356-3.252-60.045-8.122-7.313-18.286-10.889-28.404-10.889zM1184.675-0.129c-10.819 0-21.646 4.107-29.937 12.314-16.668 16.521-16.799 43.462-0.278 60.152l125.423 126.548-124.744 124.659c-16.606 16.606-16.606 43.546-0.023 60.152 16.606 16.606 43.546 16.584 60.152 0.023l154.682-154.598c16.545-16.56 16.606-43.392 0.147-60.022l-155.23-156.639c-8.292-8.377-19.242-12.584-30.193-12.584z" />
<glyph unicode="&#xe90a;" glyph-name="expand" d="M880.639 140.799h-737.279c-79.053 0-143.36 64.307-143.36 143.36v327.68c0 79.053 64.307 143.36 143.36 143.36h737.279c79.053 0 143.36-64.307 143.36-143.36v-327.68c0-79.053-64.307-143.36-143.36-143.36zM143.36 714.238c-56.442 0-102.401-45.956-102.401-102.401v-327.68c0-56.482 45.956-102.401 102.401-102.401h737.279c56.482 0 102.401 45.916 102.401 102.401v327.68c0 56.442-45.916 102.401-102.401 102.401h-737.279z" />
<glyph unicode="&#xe90b;" glyph-name="128" horiz-adv-x="2496" d="M1979.429-64h-1462.858c-282.331 0-512 229.669-512 512s229.669 512 512 512h1462.858c282.331 0 512-229.669 512-512s-229.669-512-512-512zM516.571 911.239c-255.414 0-463.239-207.824-463.239-463.239s207.824-463.239 463.239-463.239h1462.858c255.414 0 463.239 207.824 463.239 463.239s-207.824 463.239-463.239 463.239h-1462.858zM727.418 236.715h-56.272v361.132l-85.187-1.122v40.569l141.41 15.408v-415.986zM1165.689 236.715h-269.702v38.814l136.29 151.212c24.381 27.258 40.912 48.859 49.59 64.852s13.019 32.378 13.019 49.152c0 20.773-6.047 38.228-18.139 52.419s-28.184 21.261-48.176 21.261c-28.77 0-49.934-7.363-63.586-22.138s-20.432-35.5-20.432-62.124h-53.979l-0.586 1.708c-0.976 35.792 10.971 65.926 35.695 90.307s59.052 36.571 102.838 36.571c37.352 0 67.095-10.924 89.283-32.719s33.304-49.59 33.304-83.285c0-22.673-6.73-45.396-20.14-68.119s-32.232-47.202-56.417-73.29l-109.423-118.882 0.586-1.415h200.020v-44.325zM1480.303 544.158c0-21.699-6.144-40.717-18.287-57.004-12.241-16.287-28.721-28.43-49.445-36.426 23.99-8.387 43.153-21.504 57.539-39.448s21.602-38.572 21.602-61.975c0-38.474-12.581-67.877-37.595-88.162s-57.539-30.427-97.523-30.427c-40.815 0-73.63 10.143-98.499 30.427-24.819 20.284-37.255 49.688-37.255 88.162 0 23.407 7.070 44.079 21.164 61.975s33.159 31.060 57.148 39.448c-20.82 7.997-37.106 20.14-48.859 36.426-11.85 16.287-17.748 35.305-17.748 57.004 0 36.571 11.264 64.805 33.839 84.699s52.466 29.841 89.624 29.841c36.571 0 66.364-9.947 89.526-29.841s34.768-48.128 34.768-84.699zM1435.732 350.575c0 22.821-7.559 41.546-22.576 56.175-15.117 14.629-34.132 21.942-57.148 21.942-23.407 0-42.472-7.313-57.051-21.942-14.579-14.676-21.797-33.401-21.797-56.175 0-23.552 7.168-42.032 21.699-55.492 14.433-13.359 33.694-20.089 57.735-20.089 23.407 0 42.422 6.778 57.148 20.237 14.579 13.555 21.992 31.939 21.992 55.344zM1423.983 542.99c0 20.577-6.485 37.595-19.311 51.152s-29.11 20.284-48.664 20.284c-19.992 0-36.231-6.535-48.566-19.553-12.433-13.070-18.577-30.329-18.577-51.834 0-21.164 6.192-38.083 18.675-50.86s28.817-19.163 49.054-19.163c19.749 0 35.985 6.386 48.566 19.163s18.822 29.696 18.822 50.809zM1677.446 424.448h-48.566v-187.732h-56.272v415.986h56.272v-183.98h43.446l148.871 183.98h62.268l0.879-1.415-161.452-199.728 173.153-213.43-0.879-1.415h-67.146l-150.576 187.732z" />
<glyph unicode="&#xe90c;" glyph-name="expand-off" d="M880.64 222.721h-737.279c-79.053 0-143.36 64.307-143.36 143.36v163.84c0 79.053 64.307 143.36 143.36 143.36h737.279c79.053 0 143.36-64.307 143.36-143.36v-163.84c0-79.053-64.307-143.36-143.36-143.36zM143.36 632.32c-56.442 0-102.401-45.956-102.401-102.401v-163.84c0-56.482 45.956-102.401 102.401-102.401h737.279c56.482 0 102.401 45.916 102.401 102.401v163.84c0 56.442-45.916 102.401-102.401 102.401h-737.279z" />
<glyph unicode="&#xe90d;" glyph-name="320" horiz-adv-x="2496" d="M1979.429-64h-1462.858c-282.331 0-512 229.669-512 512s229.669 512 512 512h1462.858c282.331 0 512-229.669 512-512s-229.669-512-512-512zM516.571 911.239c-255.414 0-463.239-207.824-463.239-463.239s207.824-463.239 463.239-463.239h1462.858c255.414 0 463.239 207.824 463.239 463.239s-207.824 463.239-463.239 463.239h-1462.858zM643.695 470.723h49.152c24.966 0 42.618 6.242 53.005 18.725s15.556 29.841 15.556 52.127c0 23.795-5.901 41.887-17.701 54.272s-29.258 18.577-52.272 18.577c-21.895 0-39.498-6.437-52.712-19.311s-19.846-29.939-19.846-51.297h-54.030l-0.586 1.708c-0.976 31.451 10.436 58.125 34.132 80.165s54.71 33.010 92.988 33.010c38.474 0 69.144-10.24 92.015-30.72s34.281-49.688 34.281-87.575c0-17.165-5.168-34.23-15.556-51.297s-25.94-30.036-46.714-39.010c24.966-8.192 42.618-21.066 53.005-38.572s15.556-37.157 15.556-58.856c0-37.888-12.433-67.729-37.302-89.428s-56.613-32.573-95.279-32.573c-37.888 0-69.292 10.24-94.159 30.72s-36.816 48.226-35.84 83.285l0.879 1.708h53.736c0-21.797 6.73-39.205 20.14-52.079s31.842-19.311 55.296-19.311c23.795 0 42.472 6.437 55.98 19.311s20.284 31.986 20.284 57.247c0 25.6-5.999 44.47-17.994 56.613s-30.963 18.237-56.855 18.237h-49.152v44.325zM1165.689 236.715h-269.702v38.814l136.29 151.212c24.381 27.258 40.912 48.859 49.59 64.852s13.019 32.378 13.019 49.152c0 20.773-6.047 38.228-18.139 52.419s-28.184 21.261-48.176 21.261c-28.77 0-49.934-7.363-63.586-22.138s-20.432-35.5-20.432-62.124h-53.979l-0.586 1.708c-0.976 35.792 10.971 65.926 35.695 90.307s59.052 36.571 102.838 36.571c37.352 0 67.095-10.924 89.283-32.719s33.304-49.59 33.304-83.285c0-22.673-6.73-45.396-20.14-68.119s-32.232-47.202-56.417-73.29l-109.423-118.882 0.586-1.415h200.020v-44.325zM1488.836 395.288c0-53.15-11.799-93.868-35.352-122.149s-55.785-42.422-96.646-42.422c-41.008 0-73.388 14.191-97.135 42.57-23.845 28.379-35.743 69.046-35.743 122.001v98.546c0 52.955 11.85 93.672 35.547 122.149s55.929 42.715 96.745 42.715c40.912 0 73.239-14.238 96.94-42.715s35.597-69.194 35.597-122.149v-98.546zM1432.563 505.93c0 35.937-6.582 62.999-19.601 81.236-13.070 18.19-31.939 27.258-56.66 27.258-24.819 0-43.692-9.118-56.563-27.258-13.019-18.19-19.408-45.252-19.408-81.236v-121.904c0-35.937 6.582-63.148 19.699-81.482 13.167-18.384 32.037-27.55 56.855-27.55 24.721 0 43.544 9.168 56.368 27.453 12.874 18.237 19.311 45.494 19.311 81.627v121.856zM1677.74 424.448h-48.566v-187.732h-56.272v415.986h56.272v-183.98h43.446l148.871 183.98h62.268l0.879-1.415-161.452-199.728 173.153-213.43-0.879-1.415h-67.194l-150.528 187.732z" />
</font>
</defs>
</svg>
